<svg width="192.22" height="20.078" version="1.1" xmlns="http://www.w3.org/2000/svg" xmlns:xlink="http://www.w3.org/1999/xlink">
 <style/>
 <defs>
  <linearGradient id="linearGradient891" x1="170.83" x2="170.83" y1="-5.6998" y2="-16.76" gradientTransform="translate(0,20)" gradientUnits="userSpaceOnUse">
   <stop stop-color="#480900" stop-opacity=".4549" offset="0"/>
   <stop stop-color="#d2d2d2" stop-opacity="0" offset="1"/>
  </linearGradient>
  <filter id="filter923" x="-.0021966" y="-.018085" width="1.0044" height="1.0362" color-interpolation-filters="sRGB">
   <feGaussianBlur stdDeviation="0.082526871"/>
  </filter>
  <filter id="filter927" x="-.0025127" y="-.018605" width="1.005" height="1.0372" color-interpolation-filters="sRGB">
   <feGaussianBlur stdDeviation="0.082526871"/>
  </filter>
 </defs>
 <clipPath id="a">
  <rect width="102" height="20" rx="3" fill="#fff"/>
 </clipPath>
 <g>
  <path d="m188.84 0h-104.56v20h104.56c1.8715 0 3.3782-1.5067 3.3782-3.3782v-13.244c0-1.8715-1.5067-3.3782-3.3782-3.3782z" fill="#f60" style="paint-order:stroke fill markers"/>
  <path d="m3.3782 0h84.558v20h-84.558c-1.8715 0-3.3782-1.5067-3.3782-3.3782v-13.244c0-1.8715 1.5067-3.3782 3.3782-3.3782z" fill="#4d4d4d" style="paint-order:stroke fill markers"/>
  <rect x="4.602e-15" width="192.17" height="20.078" ry="3.3782" fill="url(#linearGradient891)" style="paint-order:stroke fill markers"/>
 </g>
 <g>
  <g transform="translate(0 .81938)" fill="#010101" fill-opacity=".66791" filter="url(#filter927)" stroke-width=".1" aria-label="ansible-galaxy">
   <path d="m10.162 11.088q-1.1978 0-1.6597 0.27393-0.46191 0.27393-0.46191 0.93457 0 0.52637 0.34375 0.83789 0.34912 0.30615 0.94531 0.30615 0.82178 0 1.3159-0.58008 0.49951-0.58545 0.49951-1.5522v-0.22022zm1.9712-0.4082v3.4321h-0.98828v-0.91309q-0.33838 0.54785-0.84326 0.81104-0.50488 0.25781-1.2354 0.25781-0.92383 0-1.4717-0.51562-0.54248-0.521-0.54248-1.3911 0-1.0151 0.67676-1.5308 0.68213-0.51562 2.0303-0.51562h1.3857v-0.09668q0-0.68213-0.45117-1.0527-0.4458-0.37598-1.2568-0.37598-0.51562 0-1.0044 0.12354-0.48877 0.12354-0.93994 0.37061v-0.91309q0.54248-0.20947 1.0527-0.31152 0.51025-0.10742 0.99365-0.10742 1.3052 0 1.9497 0.67676t0.64453 2.0518z" style="font-feature-settings:normal;font-variant-caps:normal;font-variant-ligatures:normal;font-variant-numeric:normal"/>
   <path d="m19.169 10.481v3.6309h-0.98828v-3.5986q0-0.854-0.33301-1.2783t-0.99902-0.42432q-0.80029 0-1.2622 0.51025t-0.46191 1.3911v3.3999h-0.99365v-6.0156h0.99365v0.93457q0.35449-0.54248 0.83252-0.81104 0.4834-0.26855 1.1118-0.26855 1.0366 0 1.5684 0.64453 0.53174 0.63916 0.53174 1.8853z" style="font-feature-settings:normal;font-variant-caps:normal;font-variant-ligatures:normal;font-variant-numeric:normal"/>
   <path d="m24.975 8.2737v0.93457q-0.41894-0.21484-0.87012-0.32227t-0.93457-0.10742q-0.73584 0-1.1064 0.22559-0.36523 0.22559-0.36523 0.67676 0 0.34375 0.26318 0.54248 0.26318 0.19336 1.0581 0.3706l0.33838 0.0752q1.0527 0.22559 1.4932 0.63916 0.4458 0.4082 0.4458 1.144 0 0.83789-0.66602 1.3267-0.66064 0.48877-1.8208 0.48877-0.4834 0-1.0098-0.09668-0.521-0.09131-1.1011-0.2793v-1.0205q0.54785 0.28467 1.0796 0.42969 0.53174 0.13965 1.0527 0.13965 0.69824 0 1.0742-0.23633 0.37598-0.2417 0.37598-0.67676 0-0.40283-0.27393-0.61768-0.26855-0.21484-1.187-0.41357l-0.34375-0.08057q-0.91846-0.19336-1.3267-0.59082-0.4082-0.40283-0.4082-1.1011 0-0.84863 0.60156-1.3105 0.60156-0.46191 1.708-0.46191 0.54785 0 1.0312 0.080566 0.4834 0.080566 0.8916 0.2417z" style="font-feature-settings:normal;font-variant-caps:normal;font-variant-ligatures:normal;font-variant-numeric:normal"/>
   <path d="m26.871 8.0965h0.98828v6.0156h-0.98828zm0-2.3418h0.98828v1.2515h-0.98828z" style="font-feature-settings:normal;font-variant-caps:normal;font-variant-ligatures:normal;font-variant-numeric:normal"/>
   <path d="m34.246 11.11q0-1.0903-0.45117-1.708-0.4458-0.62305-1.23-0.62305-0.78418 0-1.2354 0.62305-0.4458 0.61768-0.4458 1.708t0.4458 1.7134q0.45117 0.61768 1.2354 0.61768 0.78418 0 1.23-0.61768 0.45117-0.62305 0.45117-1.7134zm-3.3623-2.1001q0.31152-0.53711 0.78418-0.79492 0.47803-0.26318 1.1387-0.26318 1.0957 0 1.7778 0.87012 0.6875 0.87012 0.6875 2.2881 0 1.418-0.6875 2.2881-0.68213 0.87012-1.7778 0.87012-0.66064 0-1.1387-0.25781-0.47266-0.26318-0.78418-0.80029v0.90234h-0.99365v-8.3574h0.99365z" style="font-feature-settings:normal;font-variant-caps:normal;font-variant-ligatures:normal;font-variant-numeric:normal"/>
   <path d="m36.91 5.7547h0.98828v8.3574h-0.98828z" style="font-feature-settings:normal;font-variant-caps:normal;font-variant-ligatures:normal;font-variant-numeric:normal"/>
   <path d="m45.111 10.857v0.4834h-4.5439q0.06445 1.0205 0.6123 1.5576 0.55322 0.53174 1.5361 0.53174 0.56934 0 1.1011-0.13965 0.53711-0.13965 1.0635-0.41894v0.93457q-0.53174 0.22559-1.0903 0.34375-0.55859 0.11816-1.1333 0.11816-1.4395 0-2.2827-0.83789-0.83789-0.83789-0.83789-2.2666 0-1.4771 0.79492-2.3418 0.80029-0.87012 2.1538-0.87012 1.2139 0 1.9175 0.78418 0.70898 0.77881 0.70898 2.1216zm-0.98828-0.29004q-0.010742-0.81104-0.45654-1.2944-0.44043-0.4834-1.1709-0.4834-0.82715 0-1.3267 0.46729-0.49414 0.46729-0.56934 1.3159z" style="font-feature-settings:normal;font-variant-caps:normal;font-variant-ligatures:normal;font-variant-numeric:normal"/>
   <path d="m46.234 10.659h2.895v0.88086h-2.895z" style="font-feature-settings:normal;font-variant-caps:normal;font-variant-ligatures:normal;font-variant-numeric:normal"/>
   <path d="m54.661 11.034q0-1.0742-0.4458-1.665-0.44043-0.59082-1.2407-0.59082-0.79492 0-1.2407 0.59082-0.44043 0.59082-0.44043 1.665 0 1.0688 0.44043 1.6597 0.4458 0.59082 1.2407 0.59082 0.80029 0 1.2407-0.59082 0.4458-0.59082 0.4458-1.6597zm0.98828 2.3311q0 1.5361-0.68213 2.2827-0.68213 0.75195-2.0894 0.75195-0.521 0-0.98291-0.08057-0.46191-0.0752-0.89697-0.23633v-0.96143q0.43506 0.23633 0.85938 0.34912 0.42432 0.11279 0.86475 0.11279 0.97217 0 1.4556-0.51025 0.4834-0.50488 0.4834-1.5308v-0.48877q-0.30615 0.53174-0.78418 0.79492-0.47803 0.26318-1.144 0.26318-1.1064 0-1.7832-0.84326-0.67676-0.84326-0.67676-2.2344 0-1.3965 0.67676-2.2397 0.67676-0.84326 1.7832-0.84326 0.66602 0 1.144 0.26318 0.47803 0.26318 0.78418 0.79492v-0.91309h0.98828z" style="font-feature-settings:normal;font-variant-caps:normal;font-variant-ligatures:normal;font-variant-numeric:normal"/>
   <path d="m60.419 11.088q-1.1978 0-1.6597 0.27393t-0.46191 0.93457q0 0.52637 0.34375 0.83789 0.34912 0.30615 0.94531 0.30615 0.82178 0 1.3159-0.58008 0.49951-0.58545 0.49951-1.5522v-0.22022zm1.9712-0.4082v3.4321h-0.98828v-0.91309q-0.33838 0.54785-0.84326 0.81104-0.50488 0.25781-1.2354 0.25781-0.92383 0-1.4717-0.51562-0.54248-0.521-0.54248-1.3911 0-1.0151 0.67676-1.5308 0.68213-0.51562 2.0303-0.51562h1.3857v-0.09668q0-0.68213-0.45117-1.0527-0.4458-0.37598-1.2568-0.37598-0.51562 0-1.0044 0.12354-0.48877 0.12354-0.93994 0.37061v-0.91308q0.54248-0.20947 1.0527-0.31152 0.51025-0.10742 0.99365-0.10742 1.3052 0 1.9497 0.67676t0.64453 2.0518z" style="font-feature-settings:normal;font-variant-caps:normal;font-variant-ligatures:normal;font-variant-numeric:normal"/>
   <path d="m64.426 5.7547h0.98828v8.3574h-0.98828z" style="font-feature-settings:normal;font-variant-caps:normal;font-variant-ligatures:normal;font-variant-numeric:normal"/>
   <path d="m70.216 11.088q-1.1978 0-1.6597 0.27393t-0.46191 0.93457q0 0.52637 0.34375 0.83789 0.34912 0.30615 0.94531 0.30615 0.82178 0 1.3159-0.58008 0.49951-0.58545 0.49951-1.5522v-0.22022zm1.9712-0.4082v3.4321h-0.98828v-0.91309q-0.33838 0.54785-0.84326 0.81104-0.50488 0.25781-1.2354 0.25781-0.92383 0-1.4717-0.51562-0.54248-0.521-0.54248-1.3911 0-1.0151 0.67676-1.5308 0.68213-0.51562 2.0303-0.51562h1.3857v-0.09668q0-0.68213-0.45117-1.0527-0.4458-0.37598-1.2568-0.37598-0.51562 0-1.0044 0.12354-0.48877 0.12354-0.93994 0.37061v-0.91308q0.54248-0.20947 1.0527-0.31152 0.51025-0.10742 0.99365-0.10742 1.3052 0 1.9497 0.67676t0.64453 2.0518z" style="font-feature-settings:normal;font-variant-caps:normal;font-variant-ligatures:normal;font-variant-numeric:normal"/>
   <path d="m79.223 8.0965-2.1753 2.9272 2.2881 3.0884h-1.1655l-1.751-2.3633-1.751 2.3633h-1.1655l2.3364-3.1475-2.1377-2.8682h1.1655l1.5952 2.1431 1.5952-2.1431z" style="font-feature-settings:normal;font-variant-caps:normal;font-variant-ligatures:normal;font-variant-numeric:normal"/>
   <path d="m83.235 14.671q-0.41894 1.0742-0.81641 1.4019t-1.0635 0.32764h-0.78955v-0.82715h0.58008q0.4082 0 0.63379-0.19336 0.22559-0.19336 0.49951-0.91309l0.17725-0.45117-2.4331-5.9189h1.0474l1.8799 4.7051 1.8799-4.7051h1.0474z" style="font-feature-settings:normal;font-variant-caps:normal;font-variant-ligatures:normal;font-variant-numeric:normal"/>
  </g>
  <g fill="#fff" aria-label="ansible-galaxy">
   <path d="m10.162 11.088q-1.1978 0-1.6597 0.27393-0.46191 0.27393-0.46191 0.93457 0 0.52637 0.34375 0.83789 0.34912 0.30615 0.94531 0.30615 0.82178 0 1.3159-0.58008 0.49951-0.58545 0.49951-1.5522v-0.22022zm1.9712-0.4082v3.4321h-0.98828v-0.91309q-0.33838 0.54785-0.84326 0.81104-0.50488 0.25781-1.2354 0.25781-0.92383 0-1.4717-0.51562-0.54248-0.521-0.54248-1.3911 0-1.0151 0.67676-1.5308 0.68213-0.51562 2.0303-0.51562h1.3857v-0.09668q0-0.68213-0.45117-1.0527-0.4458-0.37598-1.2568-0.37598-0.51562 0-1.0044 0.12354-0.48877 0.12354-0.93994 0.37061v-0.91309q0.54248-0.20947 1.0527-0.31152 0.51025-0.10742 0.99365-0.10742 1.3052 0 1.9497 0.67676t0.64453 2.0518z" style="font-feature-settings:normal;font-variant-caps:normal;font-variant-ligatures:normal;font-variant-numeric:normal"/>
   <path d="m19.169 10.481v3.6309h-0.98828v-3.5986q0-0.854-0.33301-1.2783t-0.99902-0.42432q-0.80029 0-1.2622 0.51025t-0.46191 1.3911v3.3999h-0.99365v-6.0156h0.99365v0.93457q0.35449-0.54248 0.83252-0.81104 0.4834-0.26855 1.1118-0.26855 1.0366 0 1.5684 0.64453 0.53174 0.63916 0.53174 1.8853z" style="font-feature-settings:normal;font-variant-caps:normal;font-variant-ligatures:normal;font-variant-numeric:normal"/>
   <path d="m24.975 8.2737v0.93457q-0.41894-0.21484-0.87012-0.32227t-0.93457-0.10742q-0.73584 0-1.1064 0.22559-0.36523 0.22559-0.36523 0.67676 0 0.34375 0.26318 0.54248 0.26318 0.19336 1.0581 0.3706l0.33838 0.0752q1.0527 0.22559 1.4932 0.63916 0.4458 0.4082 0.4458 1.144 0 0.83789-0.66602 1.3267-0.66064 0.48877-1.8208 0.48877-0.4834 0-1.0098-0.09668-0.521-0.09131-1.1011-0.2793v-1.0205q0.54785 0.28467 1.0796 0.42969 0.53174 0.13965 1.0527 0.13965 0.69824 0 1.0742-0.23633 0.37598-0.2417 0.37598-0.67676 0-0.40283-0.27393-0.61768-0.26855-0.21484-1.187-0.41357l-0.34375-0.08057q-0.91846-0.19336-1.3267-0.59082-0.4082-0.40283-0.4082-1.1011 0-0.84863 0.60156-1.3105 0.60156-0.46191 1.708-0.46191 0.54785 0 1.0312 0.080566 0.4834 0.080566 0.8916 0.2417z" style="font-feature-settings:normal;font-variant-caps:normal;font-variant-ligatures:normal;font-variant-numeric:normal"/>
   <path d="m26.871 8.0965h0.98828v6.0156h-0.98828zm0-2.3418h0.98828v1.2515h-0.98828z" style="font-feature-settings:normal;font-variant-caps:normal;font-variant-ligatures:normal;font-variant-numeric:normal"/>
   <path d="m34.246 11.11q0-1.0903-0.45117-1.708-0.4458-0.62305-1.23-0.62305-0.78418 0-1.2354 0.62305-0.4458 0.61768-0.4458 1.708t0.4458 1.7134q0.45117 0.61768 1.2354 0.61768 0.78418 0 1.23-0.61768 0.45117-0.62305 0.45117-1.7134zm-3.3623-2.1001q0.31152-0.53711 0.78418-0.79492 0.47803-0.26318 1.1387-0.26318 1.0957 0 1.7778 0.87012 0.6875 0.87012 0.6875 2.2881 0 1.418-0.6875 2.2881-0.68213 0.87012-1.7778 0.87012-0.66064 0-1.1387-0.25781-0.47266-0.26318-0.78418-0.80029v0.90234h-0.99365v-8.3574h0.99365z" style="font-feature-settings:normal;font-variant-caps:normal;font-variant-ligatures:normal;font-variant-numeric:normal"/>
   <path d="m36.91 5.7547h0.98828v8.3574h-0.98828z" style="font-feature-settings:normal;font-variant-caps:normal;font-variant-ligatures:normal;font-variant-numeric:normal"/>
   <path d="m45.111 10.857v0.4834h-4.5439q0.06445 1.0205 0.6123 1.5576 0.55322 0.53174 1.5361 0.53174 0.56934 0 1.1011-0.13965 0.53711-0.13965 1.0635-0.41894v0.93457q-0.53174 0.22559-1.0903 0.34375-0.55859 0.11816-1.1333 0.11816-1.4395 0-2.2827-0.83789-0.83789-0.83789-0.83789-2.2666 0-1.4771 0.79492-2.3418 0.80029-0.87012 2.1538-0.87012 1.2139 0 1.9175 0.78418 0.70898 0.77881 0.70898 2.1216zm-0.98828-0.29004q-0.010742-0.81104-0.45654-1.2944-0.44043-0.4834-1.1709-0.4834-0.82715 0-1.3267 0.46729-0.49414 0.46729-0.56934 1.3159z" style="font-feature-settings:normal;font-variant-caps:normal;font-variant-ligatures:normal;font-variant-numeric:normal"/>
   <path d="m46.234 10.659h2.895v0.88086h-2.895z" style="font-feature-settings:normal;font-variant-caps:normal;font-variant-ligatures:normal;font-variant-numeric:normal"/>
   <path d="m54.661 11.034q0-1.0742-0.4458-1.665-0.44043-0.59082-1.2407-0.59082-0.79492 0-1.2407 0.59082-0.44043 0.59082-0.44043 1.665 0 1.0688 0.44043 1.6597 0.4458 0.59082 1.2407 0.59082 0.80029 0 1.2407-0.59082 0.4458-0.59082 0.4458-1.6597zm0.98828 2.3311q0 1.5361-0.68213 2.2827-0.68213 0.75195-2.0894 0.75195-0.521 0-0.98291-0.08057-0.46191-0.0752-0.89697-0.23633v-0.96143q0.43506 0.23633 0.85938 0.34912 0.42432 0.11279 0.86475 0.11279 0.97217 0 1.4556-0.51025 0.4834-0.50488 0.4834-1.5308v-0.48877q-0.30615 0.53174-0.78418 0.79492-0.47803 0.26318-1.144 0.26318-1.1064 0-1.7832-0.84326-0.67676-0.84326-0.67676-2.2344 0-1.3965 0.67676-2.2397 0.67676-0.84326 1.7832-0.84326 0.66602 0 1.144 0.26318 0.47803 0.26318 0.78418 0.79492v-0.91309h0.98828z" style="font-feature-settings:normal;font-variant-caps:normal;font-variant-ligatures:normal;font-variant-numeric:normal"/>
   <path d="m60.419 11.088q-1.1978 0-1.6597 0.27393t-0.46191 0.93457q0 0.52637 0.34375 0.83789 0.34912 0.30615 0.94531 0.30615 0.82178 0 1.3159-0.58008 0.49951-0.58545 0.49951-1.5522v-0.22022zm1.9712-0.4082v3.4321h-0.98828v-0.91309q-0.33838 0.54785-0.84326 0.81104-0.50488 0.25781-1.2354 0.25781-0.92383 0-1.4717-0.51562-0.54248-0.521-0.54248-1.3911 0-1.0151 0.67676-1.5308 0.68213-0.51562 2.0303-0.51562h1.3857v-0.09668q0-0.68213-0.45117-1.0527-0.4458-0.37598-1.2568-0.37598-0.51562 0-1.0044 0.12354-0.48877 0.12354-0.93994 0.37061v-0.91308q0.54248-0.20947 1.0527-0.31152 0.51025-0.10742 0.99365-0.10742 1.3052 0 1.9497 0.67676t0.64453 2.0518z" style="font-feature-settings:normal;font-variant-caps:normal;font-variant-ligatures:normal;font-variant-numeric:normal"/>
   <path d="m64.426 5.7547h0.98828v8.3574h-0.98828z" style="font-feature-settings:normal;font-variant-caps:normal;font-variant-ligatures:normal;font-variant-numeric:normal"/>
   <path d="m70.216 11.088q-1.1978 0-1.6597 0.27393t-0.46191 0.93457q0 0.52637 0.34375 0.83789 0.34912 0.30615 0.94531 0.30615 0.82178 0 1.3159-0.58008 0.49951-0.58545 0.49951-1.5522v-0.22022zm1.9712-0.4082v3.4321h-0.98828v-0.91309q-0.33838 0.54785-0.84326 0.81104-0.50488 0.25781-1.2354 0.25781-0.92383 0-1.4717-0.51562-0.54248-0.521-0.54248-1.3911 0-1.0151 0.67676-1.5308 0.68213-0.51562 2.0303-0.51562h1.3857v-0.09668q0-0.68213-0.45117-1.0527-0.4458-0.37598-1.2568-0.37598-0.51562 0-1.0044 0.12354-0.48877 0.12354-0.93994 0.37061v-0.91308q0.54248-0.20947 1.0527-0.31152 0.51025-0.10742 0.99365-0.10742 1.3052 0 1.9497 0.67676t0.64453 2.0518z" style="font-feature-settings:normal;font-variant-caps:normal;font-variant-ligatures:normal;font-variant-numeric:normal"/>
   <path d="m79.223 8.0965-2.1753 2.9272 2.2881 3.0884h-1.1655l-1.751-2.3633-1.751 2.3633h-1.1655l2.3364-3.1475-2.1377-2.8682h1.1655l1.5952 2.1431 1.5952-2.1431z" style="font-feature-settings:normal;font-variant-caps:normal;font-variant-ligatures:normal;font-variant-numeric:normal"/>
   <path d="m83.235 14.671q-0.41894 1.0742-0.81641 1.4019t-1.0635 0.32764h-0.78955v-0.82715h0.58008q0.4082 0 0.63379-0.19336 0.22559-0.19336 0.49951-0.91309l0.17725-0.45117-2.4331-5.9189h1.0474l1.8799 4.7051 1.8799-4.7051h1.0474z" style="font-feature-settings:normal;font-variant-caps:normal;font-variant-ligatures:normal;font-variant-numeric:normal"/>
  </g>
  <text x="92.459076" y="14.839545" dominant-baseline="auto" fill="#010101" fill-opacity=".66791" filter="url(#filter923)" font-family="'DejaVu Sans', Verdana, Geneva, sans-serif" font-size="11px" stroke-width=".1" text-anchor="middle" style="font-feature-settings:normal;font-variant-alternates:normal;font-variant-caps:normal;font-variant-ligatures:normal;font-variant-numeric:normal;font-variant-position:normal;line-height:normal;shape-padding:0;text-decoration-color:#000000;text-decoration-line:none;text-decoration-style:solid;text-indent:0;text-orientation:mixed;text-transform:none;white-space:normal" xml:space="preserve"><tspan x="92.459076" y="14.839545" fill="#010101" fill-opacity=".66791" text-anchor="start">do1jlr.role_name</tspan></text>
  <text x="92.459076" y="14.291504" fill="#ffffff" font-family="'DejaVu Sans', Verdana, Geneva, sans-serif" font-size="11px" letter-spacing="0px" word-spacing="0px" style="font-feature-settings:normal;font-variant-caps:normal;font-variant-ligatures:normal;font-variant-numeric:normal;line-height:1.25" xml:space="preserve"><tspan x="92.459076" y="14.291504">do1jlr.role_name</tspan></text>
 </g>
</svg>
