<?xml version="1.0" encoding="UTF-8" standalone="no"?>
<svg
   xmlns:dc="http://purl.org/dc/elements/1.1/"
   xmlns:cc="http://creativecommons.org/ns#"
   xmlns:rdf="http://www.w3.org/1999/02/22-rdf-syntax-ns#"
   xmlns:svg="http://www.w3.org/2000/svg"
   xmlns="http://www.w3.org/2000/svg"
   xmlns:xlink="http://www.w3.org/1999/xlink"
   id="svg98"
   version="1.1"
   height="20.0784"
   width="292.2182">
  <metadata
     id="metadata102">
    <rdf:RDF>
      <cc:Work
         rdf:about="">
        <dc:format>image/svg+xml</dc:format>
        <dc:type
           rdf:resource="http://purl.org/dc/dcmitype/StillImage" />
        <dc:title></dc:title>
      </cc:Work>
    </rdf:RDF>
  </metadata>
  <style
     id="style2" />
  <defs
     id="defs15">
    <linearGradient
       gradientTransform="translate(0,20)"
       gradientUnits="userSpaceOnUse"
       y2="-16.76"
       y1="-5.6998"
       x2="170.83"
       x1="170.83"
       id="linearGradient891">
      <stop
         id="stop4"
         offset="0"
         stop-opacity=".4549"
         stop-color="#480900" />
      <stop
         id="stop6"
         offset="1"
         stop-opacity="0"
         stop-color="#d2d2d2" />
    </linearGradient>
    <filter
       style="color-interpolation-filters:sRGB"
       height="1.0362"
       width="1.0044"
       y="-0.018084999"
       x="-0.0021966"
       id="filter923">
      <feGaussianBlur
         id="feGaussianBlur9"
         stdDeviation="0.082526871" />
    </filter>
    <filter
       style="color-interpolation-filters:sRGB"
       height="1.0372"
       width="1.005"
       y="-0.018604999"
       x="-0.0025126999"
       id="filter927">
      <feGaussianBlur
         id="feGaussianBlur12"
         stdDeviation="0.082526871" />
    </filter>
    <linearGradient
       y2="-16.76"
       x2="170.83"
       y1="-5.6998"
       x1="170.83"
       gradientTransform="translate(0,20)"
       gradientUnits="userSpaceOnUse"
       id="linearGradient1187"
       xlink:href="#linearGradient891" />
  </defs>
  <clipPath
     id="a">
    <rect
       style="fill:#ffffff"
       y="0"
       x="0"
       id="rect17"
       rx="3"
       height="20"
       width="102" />
  </clipPath>
  <g
     transform="translate(0,4e-4)"
     id="g26">
    <path
       id="path20"
       style="fill:#ff6600;paint-order:stroke fill markers"
       d="M 288.84,0 H 84.28 v 20 h 204.56 c 1.8715,0 3.3782,-1.5067 3.3782,-3.3782 V 3.3778 c 0,-1.8715 -1.5067,-3.3782 -3.3782,-3.3782 z" />
    <path
       id="path22"
       style="fill:#4d4d4d;paint-order:stroke fill markers"
       d="m 3.3782,0 h 84.558 V 20 H 3.3782 C 1.5067,20 0,18.4933 0,16.6218 V 3.3778 C 0,1.5063 1.5067,-4e-4 3.3782,-4e-4 Z" />
    <path
       id="rect24"
       d="M 3.3782001,0 H 288.71015 c 1.87152,0 3.3782,1.5066772 3.3782,3.3782001 V 16.699799 c 0,1.871523 -1.50668,3.3782 -3.3782,3.3782 H 3.3782001 C 1.5066772,20.077999 0,18.571322 0,16.699799 V 3.3782001 C 0,1.5066772 1.5066772,0 3.3782001,0 Z"
       style="fill:url(#linearGradient1187);paint-order:stroke fill markers" />
  </g>
  <g
     transform="translate(0,4e-4)"
     id="g96">
    <g
       style="fill:#010101;fill-opacity:0.66790999;stroke-width:0.1;filter:url(#filter927)"
       id="g56"
       aria-label="ansible-galaxy"
       transform="translate(0,0.81938)">
      <path
         id="path28"
         style="font-variant-ligatures:normal;font-variant-caps:normal;font-variant-numeric:normal;font-feature-settings:normal"
         d="m 10.162,11.088 q -1.1978,0 -1.6597,0.27393 -0.46191,0.27393 -0.46191,0.93457 0,0.52637 0.34375,0.83789 0.34912,0.30615 0.94531,0.30615 0.82178,0 1.3159,-0.58008 0.49951,-0.58545 0.49951,-1.5522 v -0.22022 z m 1.9712,-0.4082 v 3.4321 h -0.98828 v -0.91309 q -0.33838,0.54785 -0.84326,0.81104 -0.50488,0.25781 -1.2354,0.25781 -0.92383,0 -1.4717,-0.51562 -0.54248,-0.521 -0.54248,-1.3911 0,-1.0151 0.67676,-1.5308 0.68213,-0.51562 2.0303,-0.51562 h 1.3857 v -0.09668 q 0,-0.68213 -0.45117,-1.0527 -0.4458,-0.37598 -1.2568,-0.37598 -0.51562,0 -1.0044,0.12354 Q 7.9437,9.03624 7.49253,9.28331 V 8.37022 Q 8.03501,8.16075 8.54523,8.0587 9.05548,7.95128 9.53888,7.95128 q 1.3052,0 1.9497,0.67676 0.6445,0.67676 0.64453,2.0518 z" />
      <path
         id="path30"
         style="font-variant-ligatures:normal;font-variant-caps:normal;font-variant-numeric:normal;font-feature-settings:normal"
         d="m 19.169,10.481 v 3.6309 h -0.98828 v -3.5986 q 0,-0.854 -0.33301,-1.2783 -0.33301,-0.4243 -0.99902,-0.42432 -0.80029,0 -1.2622,0.51025 -0.46191,0.51025 -0.46191,1.3911 v 3.3999 h -0.99365 v -6.0156 h 0.99365 V 9.0309 q 0.35449,-0.54248 0.83252,-0.81104 0.4834,-0.26855 1.1118,-0.26855 1.0366,0 1.5684,0.64453 0.53174,0.63916 0.53174,1.8853 z" />
      <path
         id="path32"
         style="font-variant-ligatures:normal;font-variant-caps:normal;font-variant-numeric:normal;font-feature-settings:normal"
         d="M 24.975,8.2737 V 9.20827 Q 24.55606,8.99343 24.10488,8.886 23.6537,8.77857 23.17031,8.77858 q -0.73584,0 -1.1064,0.22559 -0.36523,0.22559 -0.36523,0.67676 0,0.34375 0.26318,0.54248 0.26318,0.19336 1.0581,0.3706 l 0.33838,0.0752 q 1.0527,0.22559 1.4932,0.63916 0.4458,0.4082 0.4458,1.144 0,0.83789 -0.66602,1.3267 -0.66064,0.48877 -1.8208,0.48877 -0.4834,0 -1.0098,-0.09668 -0.521,-0.09131 -1.1011,-0.2793 v -1.0205 q 0.54785,0.28467 1.0796,0.42969 0.53174,0.13965 1.0527,0.13965 0.69824,0 1.0742,-0.23633 0.37598,-0.2417 0.37598,-0.67676 0,-0.40283 -0.27393,-0.61768 -0.26855,-0.21484 -1.187,-0.41357 l -0.34375,-0.08057 q -0.91846,-0.19336 -1.3267,-0.59082 -0.4082,-0.40283 -0.4082,-1.1011 0,-0.84863 0.60156,-1.3105 0.60156,-0.46191 1.708,-0.46191 0.54785,0 1.0312,0.080566 0.4834,0.080566 0.8916,0.2417 z" />
      <path
         id="path34"
         style="font-variant-ligatures:normal;font-variant-caps:normal;font-variant-numeric:normal;font-feature-settings:normal"
         d="m 26.871,8.0965 h 0.98828 v 6.0156 H 26.871 Z m 0,-2.3418 h 0.98828 V 7.0062 H 26.871 Z" />
      <path
         id="path36"
         style="font-variant-ligatures:normal;font-variant-caps:normal;font-variant-numeric:normal;font-feature-settings:normal"
         d="m 34.246,11.11 q 0,-1.0903 -0.45117,-1.708 -0.4458,-0.62305 -1.23,-0.62305 -0.78418,0 -1.2354,0.62305 -0.4458,0.61768 -0.4458,1.708 0,1.09032 0.4458,1.7134 0.45117,0.61768 1.2354,0.61768 0.78418,0 1.23,-0.61768 Q 34.246,12.20035 34.246,11.11 Z M 30.8837,9.0099 q 0.31152,-0.53711 0.78418,-0.79492 0.47803,-0.26318 1.1387,-0.26318 1.0957,0 1.7778,0.87012 0.6875,0.87012 0.6875,2.2881 0,1.418 -0.6875,2.2881 -0.68213,0.87012 -1.7778,0.87012 -0.66064,0 -1.1387,-0.25781 -0.47266,-0.26318 -0.78418,-0.80029 v 0.90234 h -0.99365 v -8.3574 h 0.99365 z" />
      <path
         id="path38"
         style="font-variant-ligatures:normal;font-variant-caps:normal;font-variant-numeric:normal;font-feature-settings:normal"
         d="m 36.91,5.7547 h 0.98828 v 8.3574 H 36.91 Z" />
      <path
         id="path40"
         style="font-variant-ligatures:normal;font-variant-caps:normal;font-variant-numeric:normal;font-feature-settings:normal"
         d="m 45.111,10.857 v 0.4834 h -4.5439 q 0.06445,1.0205 0.6123,1.5576 0.55322,0.53174 1.5361,0.53174 0.56934,0 1.1011,-0.13965 0.53711,-0.13965 1.0635,-0.41894 v 0.93457 q -0.53174,0.22559 -1.0903,0.34375 -0.55859,0.11816 -1.1333,0.11816 -1.4395,0 -2.2827,-0.83789 -0.83789,-0.83789 -0.83789,-2.2666 0,-1.4771 0.79492,-2.3418 0.80029,-0.87012 2.1538,-0.87012 1.2139,0 1.9175,0.78418 0.70898,0.77881 0.70898,2.1216 z m -0.98828,-0.29004 q -0.01074,-0.81104 -0.45654,-1.2944 -0.44043,-0.4834 -1.1709,-0.4834 -0.82715,0 -1.3267,0.46729 -0.49414,0.46729 -0.56934,1.3159 z" />
      <path
         id="path42"
         style="font-variant-ligatures:normal;font-variant-caps:normal;font-variant-numeric:normal;font-feature-settings:normal"
         d="m 46.234,10.659 h 2.895 v 0.88086 h -2.895 z" />
      <path
         id="path44"
         style="font-variant-ligatures:normal;font-variant-caps:normal;font-variant-numeric:normal;font-feature-settings:normal"
         d="m 54.661,11.034 q 0,-1.0742 -0.4458,-1.665 -0.44043,-0.59082 -1.2407,-0.59082 -0.79492,0 -1.2407,0.59082 -0.44043,0.59082 -0.44043,1.665 0,1.0688 0.44043,1.6597 0.4458,0.59082 1.2407,0.59082 0.80029,0 1.2407,-0.59082 0.4458,-0.59082 0.4458,-1.6597 z m 0.98828,2.3311 q 0,1.5361 -0.68213,2.2827 -0.68213,0.75195 -2.0894,0.75195 -0.521,0 -0.98291,-0.08057 -0.46191,-0.0752 -0.89697,-0.23633 v -0.96143 q 0.43506,0.23633 0.85938,0.34912 0.42432,0.11279 0.86475,0.11279 0.97217,0 1.4556,-0.51025 0.4834,-0.50488 0.4834,-1.5308 v -0.48877 q -0.30615,0.53174 -0.78418,0.79492 -0.47803,0.26318 -1.144,0.26318 -1.1064,0 -1.7832,-0.84326 -0.67676,-0.84326 -0.67676,-2.2344 0,-1.3965 0.67676,-2.2397 0.67676,-0.84326 1.7832,-0.84326 0.66602,0 1.144,0.26318 0.47803,0.26318 0.78418,0.79492 V 8.096 h 0.98828 z" />
      <path
         id="path46"
         style="font-variant-ligatures:normal;font-variant-caps:normal;font-variant-numeric:normal;font-feature-settings:normal"
         d="m 60.419,11.088 q -1.1978,0 -1.6597,0.27393 -0.4619,0.27393 -0.46191,0.93457 0,0.52637 0.34375,0.83789 0.34912,0.30615 0.94531,0.30615 0.82178,0 1.3159,-0.58008 0.49951,-0.58545 0.49951,-1.5522 v -0.22022 z m 1.9712,-0.4082 v 3.4321 h -0.98828 v -0.91309 q -0.33838,0.54785 -0.84326,0.81104 -0.50488,0.25781 -1.2354,0.25781 -0.92383,0 -1.4717,-0.51562 -0.54248,-0.521 -0.54248,-1.3911 0,-1.0151 0.67676,-1.5308 0.68213,-0.51562 2.0303,-0.51562 h 1.3857 v -0.09668 q 0,-0.68213 -0.45117,-1.0527 -0.4458,-0.37598 -1.2568,-0.37598 -0.51562,0 -1.0044,0.12354 -0.48877,0.12354 -0.93994,0.37061 V 8.37023 q 0.54248,-0.20947 1.0527,-0.31152 0.51025,-0.10742 0.99365,-0.10742 1.3052,0 1.9497,0.67676 0.6445,0.67676 0.64453,2.0518 z" />
      <path
         id="path48"
         style="font-variant-ligatures:normal;font-variant-caps:normal;font-variant-numeric:normal;font-feature-settings:normal"
         d="m 64.426,5.7547 h 0.98828 v 8.3574 H 64.426 Z" />
      <path
         id="path50"
         style="font-variant-ligatures:normal;font-variant-caps:normal;font-variant-numeric:normal;font-feature-settings:normal"
         d="m 70.216,11.088 q -1.1978,0 -1.6597,0.27393 -0.4619,0.27393 -0.46191,0.93457 0,0.52637 0.34375,0.83789 0.34912,0.30615 0.94531,0.30615 0.82178,0 1.3159,-0.58008 0.49951,-0.58545 0.49951,-1.5522 v -0.22022 z m 1.9712,-0.4082 v 3.4321 h -0.98828 v -0.91309 q -0.33838,0.54785 -0.84326,0.81104 -0.50488,0.25781 -1.2354,0.25781 -0.92383,0 -1.4717,-0.51562 -0.54248,-0.521 -0.54248,-1.3911 0,-1.0151 0.67676,-1.5308 0.68213,-0.51562 2.0303,-0.51562 h 1.3857 v -0.09668 q 0,-0.68213 -0.45117,-1.0527 -0.4458,-0.37598 -1.2568,-0.37598 -0.51562,0 -1.0044,0.12354 -0.48877,0.12354 -0.93994,0.37061 V 8.37023 q 0.54248,-0.20947 1.0527,-0.31152 0.51025,-0.10742 0.99365,-0.10742 1.3052,0 1.9497,0.67676 0.6445,0.67676 0.64453,2.0518 z" />
      <path
         id="path52"
         style="font-variant-ligatures:normal;font-variant-caps:normal;font-variant-numeric:normal;font-feature-settings:normal"
         d="m 79.223,8.0965 -2.1753,2.9272 2.2881,3.0884 h -1.1655 l -1.751,-2.3633 -1.751,2.3633 h -1.1655 l 2.3364,-3.1475 -2.1377,-2.8682 h 1.1655 l 1.5952,2.1431 1.5952,-2.1431 z" />
      <path
         id="path54"
         style="font-variant-ligatures:normal;font-variant-caps:normal;font-variant-numeric:normal;font-feature-settings:normal"
         d="m 83.235,14.671 q -0.41894,1.0742 -0.81641,1.4019 -0.39747,0.3277 -1.0635,0.32764 h -0.78955 v -0.82715 h 0.58008 q 0.4082,0 0.63379,-0.19336 0.22559,-0.19336 0.49951,-0.91309 l 0.17725,-0.45117 -2.4331,-5.9189 h 1.0474 l 1.8799,4.7051 1.8799,-4.7051 h 1.0474 z" />
    </g>
    <g
       style="fill:#ffffff"
       id="g86"
       aria-label="ansible-galaxy">
      <path
         id="path58"
         style="font-variant-ligatures:normal;font-variant-caps:normal;font-variant-numeric:normal;font-feature-settings:normal"
         d="m 10.162,11.088 q -1.1978,0 -1.6597,0.27393 -0.46191,0.27393 -0.46191,0.93457 0,0.52637 0.34375,0.83789 0.34912,0.30615 0.94531,0.30615 0.82178,0 1.3159,-0.58008 0.49951,-0.58545 0.49951,-1.5522 v -0.22022 z m 1.9712,-0.4082 v 3.4321 h -0.98828 v -0.91309 q -0.33838,0.54785 -0.84326,0.81104 -0.50488,0.25781 -1.2354,0.25781 -0.92383,0 -1.4717,-0.51562 -0.54248,-0.521 -0.54248,-1.3911 0,-1.0151 0.67676,-1.5308 0.68213,-0.51562 2.0303,-0.51562 h 1.3857 v -0.09668 q 0,-0.68213 -0.45117,-1.0527 -0.4458,-0.37598 -1.2568,-0.37598 -0.51562,0 -1.0044,0.12354 Q 7.9437,9.03624 7.49253,9.28331 V 8.37022 Q 8.03501,8.16075 8.54523,8.0587 9.05548,7.95128 9.53888,7.95128 q 1.3052,0 1.9497,0.67676 0.6445,0.67676 0.64453,2.0518 z" />
      <path
         id="path60"
         style="font-variant-ligatures:normal;font-variant-caps:normal;font-variant-numeric:normal;font-feature-settings:normal"
         d="m 19.169,10.481 v 3.6309 h -0.98828 v -3.5986 q 0,-0.854 -0.33301,-1.2783 -0.33301,-0.4243 -0.99902,-0.42432 -0.80029,0 -1.2622,0.51025 -0.46191,0.51025 -0.46191,1.3911 v 3.3999 h -0.99365 v -6.0156 h 0.99365 V 9.0309 q 0.35449,-0.54248 0.83252,-0.81104 0.4834,-0.26855 1.1118,-0.26855 1.0366,0 1.5684,0.64453 0.53174,0.63916 0.53174,1.8853 z" />
      <path
         id="path62"
         style="font-variant-ligatures:normal;font-variant-caps:normal;font-variant-numeric:normal;font-feature-settings:normal"
         d="M 24.975,8.2737 V 9.20827 Q 24.55606,8.99343 24.10488,8.886 23.6537,8.77857 23.17031,8.77858 q -0.73584,0 -1.1064,0.22559 -0.36523,0.22559 -0.36523,0.67676 0,0.34375 0.26318,0.54248 0.26318,0.19336 1.0581,0.3706 l 0.33838,0.0752 q 1.0527,0.22559 1.4932,0.63916 0.4458,0.4082 0.4458,1.144 0,0.83789 -0.66602,1.3267 -0.66064,0.48877 -1.8208,0.48877 -0.4834,0 -1.0098,-0.09668 -0.521,-0.09131 -1.1011,-0.2793 v -1.0205 q 0.54785,0.28467 1.0796,0.42969 0.53174,0.13965 1.0527,0.13965 0.69824,0 1.0742,-0.23633 0.37598,-0.2417 0.37598,-0.67676 0,-0.40283 -0.27393,-0.61768 -0.26855,-0.21484 -1.187,-0.41357 l -0.34375,-0.08057 q -0.91846,-0.19336 -1.3267,-0.59082 -0.4082,-0.40283 -0.4082,-1.1011 0,-0.84863 0.60156,-1.3105 0.60156,-0.46191 1.708,-0.46191 0.54785,0 1.0312,0.080566 0.4834,0.080566 0.8916,0.2417 z" />
      <path
         id="path64"
         style="font-variant-ligatures:normal;font-variant-caps:normal;font-variant-numeric:normal;font-feature-settings:normal"
         d="m 26.871,8.0965 h 0.98828 v 6.0156 H 26.871 Z m 0,-2.3418 h 0.98828 V 7.0062 H 26.871 Z" />
      <path
         id="path66"
         style="font-variant-ligatures:normal;font-variant-caps:normal;font-variant-numeric:normal;font-feature-settings:normal"
         d="m 34.246,11.11 q 0,-1.0903 -0.45117,-1.708 -0.4458,-0.62305 -1.23,-0.62305 -0.78418,0 -1.2354,0.62305 -0.4458,0.61768 -0.4458,1.708 0,1.09032 0.4458,1.7134 0.45117,0.61768 1.2354,0.61768 0.78418,0 1.23,-0.61768 Q 34.246,12.20035 34.246,11.11 Z M 30.8837,9.0099 q 0.31152,-0.53711 0.78418,-0.79492 0.47803,-0.26318 1.1387,-0.26318 1.0957,0 1.7778,0.87012 0.6875,0.87012 0.6875,2.2881 0,1.418 -0.6875,2.2881 -0.68213,0.87012 -1.7778,0.87012 -0.66064,0 -1.1387,-0.25781 -0.47266,-0.26318 -0.78418,-0.80029 v 0.90234 h -0.99365 v -8.3574 h 0.99365 z" />
      <path
         id="path68"
         style="font-variant-ligatures:normal;font-variant-caps:normal;font-variant-numeric:normal;font-feature-settings:normal"
         d="m 36.91,5.7547 h 0.98828 v 8.3574 H 36.91 Z" />
      <path
         id="path70"
         style="font-variant-ligatures:normal;font-variant-caps:normal;font-variant-numeric:normal;font-feature-settings:normal"
         d="m 45.111,10.857 v 0.4834 h -4.5439 q 0.06445,1.0205 0.6123,1.5576 0.55322,0.53174 1.5361,0.53174 0.56934,0 1.1011,-0.13965 0.53711,-0.13965 1.0635,-0.41894 v 0.93457 q -0.53174,0.22559 -1.0903,0.34375 -0.55859,0.11816 -1.1333,0.11816 -1.4395,0 -2.2827,-0.83789 -0.83789,-0.83789 -0.83789,-2.2666 0,-1.4771 0.79492,-2.3418 0.80029,-0.87012 2.1538,-0.87012 1.2139,0 1.9175,0.78418 0.70898,0.77881 0.70898,2.1216 z m -0.98828,-0.29004 q -0.01074,-0.81104 -0.45654,-1.2944 -0.44043,-0.4834 -1.1709,-0.4834 -0.82715,0 -1.3267,0.46729 -0.49414,0.46729 -0.56934,1.3159 z" />
      <path
         id="path72"
         style="font-variant-ligatures:normal;font-variant-caps:normal;font-variant-numeric:normal;font-feature-settings:normal"
         d="m 46.234,10.659 h 2.895 v 0.88086 h -2.895 z" />
      <path
         id="path74"
         style="font-variant-ligatures:normal;font-variant-caps:normal;font-variant-numeric:normal;font-feature-settings:normal"
         d="m 54.661,11.034 q 0,-1.0742 -0.4458,-1.665 -0.44043,-0.59082 -1.2407,-0.59082 -0.79492,0 -1.2407,0.59082 -0.44043,0.59082 -0.44043,1.665 0,1.0688 0.44043,1.6597 0.4458,0.59082 1.2407,0.59082 0.80029,0 1.2407,-0.59082 0.4458,-0.59082 0.4458,-1.6597 z m 0.98828,2.3311 q 0,1.5361 -0.68213,2.2827 -0.68213,0.75195 -2.0894,0.75195 -0.521,0 -0.98291,-0.08057 -0.46191,-0.0752 -0.89697,-0.23633 v -0.96143 q 0.43506,0.23633 0.85938,0.34912 0.42432,0.11279 0.86475,0.11279 0.97217,0 1.4556,-0.51025 0.4834,-0.50488 0.4834,-1.5308 v -0.48877 q -0.30615,0.53174 -0.78418,0.79492 -0.47803,0.26318 -1.144,0.26318 -1.1064,0 -1.7832,-0.84326 -0.67676,-0.84326 -0.67676,-2.2344 0,-1.3965 0.67676,-2.2397 0.67676,-0.84326 1.7832,-0.84326 0.66602,0 1.144,0.26318 0.47803,0.26318 0.78418,0.79492 V 8.096 h 0.98828 z" />
      <path
         id="path76"
         style="font-variant-ligatures:normal;font-variant-caps:normal;font-variant-numeric:normal;font-feature-settings:normal"
         d="m 60.419,11.088 q -1.1978,0 -1.6597,0.27393 -0.4619,0.27393 -0.46191,0.93457 0,0.52637 0.34375,0.83789 0.34912,0.30615 0.94531,0.30615 0.82178,0 1.3159,-0.58008 0.49951,-0.58545 0.49951,-1.5522 v -0.22022 z m 1.9712,-0.4082 v 3.4321 h -0.98828 v -0.91309 q -0.33838,0.54785 -0.84326,0.81104 -0.50488,0.25781 -1.2354,0.25781 -0.92383,0 -1.4717,-0.51562 -0.54248,-0.521 -0.54248,-1.3911 0,-1.0151 0.67676,-1.5308 0.68213,-0.51562 2.0303,-0.51562 h 1.3857 v -0.09668 q 0,-0.68213 -0.45117,-1.0527 -0.4458,-0.37598 -1.2568,-0.37598 -0.51562,0 -1.0044,0.12354 -0.48877,0.12354 -0.93994,0.37061 V 8.37023 q 0.54248,-0.20947 1.0527,-0.31152 0.51025,-0.10742 0.99365,-0.10742 1.3052,0 1.9497,0.67676 0.6445,0.67676 0.64453,2.0518 z" />
      <path
         id="path78"
         style="font-variant-ligatures:normal;font-variant-caps:normal;font-variant-numeric:normal;font-feature-settings:normal"
         d="m 64.426,5.7547 h 0.98828 v 8.3574 H 64.426 Z" />
      <path
         id="path80"
         style="font-variant-ligatures:normal;font-variant-caps:normal;font-variant-numeric:normal;font-feature-settings:normal"
         d="m 70.216,11.088 q -1.1978,0 -1.6597,0.27393 -0.4619,0.27393 -0.46191,0.93457 0,0.52637 0.34375,0.83789 0.34912,0.30615 0.94531,0.30615 0.82178,0 1.3159,-0.58008 0.49951,-0.58545 0.49951,-1.5522 v -0.22022 z m 1.9712,-0.4082 v 3.4321 h -0.98828 v -0.91309 q -0.33838,0.54785 -0.84326,0.81104 -0.50488,0.25781 -1.2354,0.25781 -0.92383,0 -1.4717,-0.51562 -0.54248,-0.521 -0.54248,-1.3911 0,-1.0151 0.67676,-1.5308 0.68213,-0.51562 2.0303,-0.51562 h 1.3857 v -0.09668 q 0,-0.68213 -0.45117,-1.0527 -0.4458,-0.37598 -1.2568,-0.37598 -0.51562,0 -1.0044,0.12354 -0.48877,0.12354 -0.93994,0.37061 V 8.37023 q 0.54248,-0.20947 1.0527,-0.31152 0.51025,-0.10742 0.99365,-0.10742 1.3052,0 1.9497,0.67676 0.6445,0.67676 0.64453,2.0518 z" />
      <path
         id="path82"
         style="font-variant-ligatures:normal;font-variant-caps:normal;font-variant-numeric:normal;font-feature-settings:normal"
         d="m 79.223,8.0965 -2.1753,2.9272 2.2881,3.0884 h -1.1655 l -1.751,-2.3633 -1.751,2.3633 h -1.1655 l 2.3364,-3.1475 -2.1377,-2.8682 h 1.1655 l 1.5952,2.1431 1.5952,-2.1431 z" />
      <path
         id="path84"
         style="font-variant-ligatures:normal;font-variant-caps:normal;font-variant-numeric:normal;font-feature-settings:normal"
         d="m 83.235,14.671 q -0.41894,1.0742 -0.81641,1.4019 -0.39747,0.3277 -1.0635,0.32764 h -0.78955 v -0.82715 h 0.58008 q 0.4082,0 0.63379,-0.19336 0.22559,-0.19336 0.49951,-0.91309 l 0.17725,-0.45117 -2.4331,-5.9189 h 1.0474 l 1.8799,4.7051 1.8799,-4.7051 h 1.0474 z" />
    </g>
    <g
       id="text90"
       style="font-size:11px;line-height:normal;font-family:'DejaVu Sans', Verdana, Geneva, sans-serif;font-variant-ligatures:normal;font-variant-position:normal;font-variant-caps:normal;font-variant-numeric:normal;font-variant-alternates:normal;font-feature-settings:normal;text-indent:0;text-decoration:none;text-decoration-line:none;text-decoration-style:solid;text-decoration-color:#000000;text-transform:none;text-orientation:mixed;dominant-baseline:auto;text-anchor:middle;white-space:normal;shape-padding:0;fill:#010101;fill-opacity:0.66790999;stroke-width:0.1;filter:url(#filter923)"
       aria-label="do1jlr.prometheus_libvirt_exporter">
      <path
         id="path910"
         style="text-anchor:start;fill:#010101;fill-opacity:0.66790999"
         d="M 97.454193,9.7370062 V 6.4821234 h 0.988281 v 8.3574216 h -0.988281 v -0.902344 q -0.311523,0.53711 -0.789551,0.800293 -0.472656,0.257813 -1.138672,0.257813 -1.090332,0 -1.777832,-0.870117 -0.682128,-0.870117 -0.682128,-2.288086 0,-1.417969 0.682128,-2.2880861 0.6875,-0.8701172 1.777832,-0.8701172 0.666016,0 1.138672,0.2631836 0.478028,0.2578125 0.789551,0.7949219 z m -3.367676,2.1000978 q 0,1.090332 0.445801,1.713379 0.451172,0.617676 1.235352,0.617676 0.784179,0 1.235351,-0.617676 0.451172,-0.623047 0.451172,-1.713379 0,-1.090332 -0.451172,-1.708008 -0.451172,-0.6230468 -1.235351,-0.6230468 -0.78418,0 -1.235352,0.6230468 -0.445801,0.617676 -0.445801,1.708008 z" />
      <path
         id="path912"
         style="text-anchor:start;fill:#010101;fill-opacity:0.66790999"
         d="m 102.80917,9.5167913 q -0.79492,0 -1.25683,0.6230467 -0.46192,0.617676 -0.46192,1.697266 0,1.07959 0.45655,1.702637 0.46191,0.617675 1.2622,0.617675 0.78955,0 1.25147,-0.623047 0.46191,-0.623046 0.46191,-1.697265 0,-1.068848 -0.46191,-1.691895 -0.46192,-0.6284177 -1.25147,-0.6284177 z m 0,-0.8378906 q 1.28907,0 2.02491,0.8378906 0.73584,0.8378907 0.73584,2.3203127 0,1.477051 -0.73584,2.320312 -0.73584,0.837891 -2.02491,0.837891 -1.29443,0 -2.03027,-0.837891 -0.73047,-0.843261 -0.73047,-2.320312 0,-1.482422 0.73047,-2.3203127 0.73584,-0.8378906 2.03027,-0.8378906 z" />
      <path
         id="path914"
         style="text-anchor:start;fill:#010101;fill-opacity:0.66790999"
         d="m 107.53574,13.926459 h 1.77246 V 7.8087835 l -1.92823,0.3867188 V 7.207221 l 1.91748,-0.3867187 h 1.08497 v 7.1059567 h 1.77246 v 0.913086 h -4.61914 z" />
      <path
         id="path916"
         style="text-anchor:start;fill:#010101;fill-opacity:0.66790999"
         d="m 114.20663,8.8239202 h 0.98829 v 6.1230468 q 0,1.149414 -0.44043,1.665039 -0.43506,0.515625 -1.40723,0.515625 h -0.37598 v -0.83789 h 0.26319 q 0.56396,0 0.76806,-0.263184 0.2041,-0.257813 0.2041,-1.07959 z m 0,-2.3417968 h 0.98829 v 1.2514648 h -0.98829 z" />
      <path
         id="path918"
         style="text-anchor:start;fill:#010101;fill-opacity:0.66790999"
         d="m 117.26279,6.4821234 h 0.98828 v 8.3574216 h -0.98828 z" />
      <path
         id="path920"
         style="text-anchor:start;fill:#010101;fill-opacity:0.66790999"
         d="m 123.80478,9.7477484 q -0.1665,-0.09668 -0.36524,-0.1396485 -0.19335,-0.04834 -0.42968,-0.04834 -0.83789,0 -1.28907,0.5478521 -0.4458,0.54248 -0.4458,1.562988 v 3.168945 h -0.99365 V 8.8239202 h 0.99365 v 0.9345704 q 0.31153,-0.5478516 0.81104,-0.8110352 0.49951,-0.2685547 1.21387,-0.2685547 0.10205,0 0.22558,0.016113 0.12354,0.010742 0.27393,0.037598 z" />
      <path
         id="path922"
         style="text-anchor:start;fill:#010101;fill-opacity:0.66790999"
         d="m 123.97128,13.475287 h 1.1333 v 1.364258 h -1.1333 z" />
      <path
         id="path924"
         style="text-anchor:start;fill:#010101;fill-opacity:0.66790999"
         d="m 128.28427,13.937201 v 3.19043 h -0.99365 V 8.8239202 h 0.99365 v 0.913086 q 0.31152,-0.5371094 0.78418,-0.7949219 0.47803,-0.2631836 1.13867,-0.2631836 1.09571,0 1.77783,0.8701172 0.6875,0.8701171 0.6875,2.2880861 0,1.417969 -0.6875,2.288086 -0.68212,0.870117 -1.77783,0.870117 -0.66064,0 -1.13867,-0.257813 -0.47266,-0.263183 -0.78418,-0.800293 z m 3.36231,-2.100097 q 0,-1.090332 -0.45118,-1.708008 -0.4458,-0.6230468 -1.22998,-0.6230468 -0.78418,0 -1.23535,0.6230468 -0.4458,0.617676 -0.4458,1.708008 0,1.090332 0.4458,1.713379 0.45117,0.617676 1.23535,0.617676 0.78418,0 1.22998,-0.617676 0.45118,-0.623047 0.45118,-1.713379 z" />
      <path
         id="path926"
         style="text-anchor:start;fill:#010101;fill-opacity:0.66790999"
         d="m 137.79648,9.7477484 q -0.16651,-0.09668 -0.36524,-0.1396485 -0.19336,-0.04834 -0.42968,-0.04834 -0.83789,0 -1.28907,0.5478521 -0.4458,0.54248 -0.4458,1.562988 v 3.168945 h -0.99365 V 8.8239202 h 0.99365 v 0.9345704 q 0.31153,-0.5478516 0.81104,-0.8110352 0.49951,-0.2685547 1.21387,-0.2685547 0.10205,0 0.22558,0.016113 0.12354,0.010742 0.27393,0.037598 z" />
      <path
         id="path928"
         style="text-anchor:start;fill:#010101;fill-opacity:0.66790999"
         d="m 140.92245,9.5167913 q -0.79492,0 -1.25683,0.6230467 -0.46192,0.617676 -0.46192,1.697266 0,1.07959 0.45655,1.702637 0.46191,0.617675 1.2622,0.617675 0.78956,0 1.25147,-0.623047 0.46191,-0.623046 0.46191,-1.697265 0,-1.068848 -0.46191,-1.691895 -0.46191,-0.6284177 -1.25147,-0.6284177 z m 0,-0.8378906 q 1.28907,0 2.02491,0.8378906 0.73584,0.8378907 0.73584,2.3203127 0,1.477051 -0.73584,2.320312 -0.73584,0.837891 -2.02491,0.837891 -1.29443,0 -2.03027,-0.837891 -0.73047,-0.843261 -0.73047,-2.320312 0,-1.482422 0.73047,-2.3203127 0.73584,-0.8378906 2.03027,-0.8378906 z" />
      <path
         id="path930"
         style="text-anchor:start;fill:#010101;fill-opacity:0.66790999"
         d="m 150.00497,9.9787054 q 0.37061,-0.6660156 0.88623,-0.9829102 0.51563,-0.3168945 1.21387,-0.3168945 0.93994,0 1.4502,0.6606445 0.51025,0.6552735 0.51025,1.8691408 v 3.630859 h -0.99365 v -3.598633 q 0,-0.864746 -0.30615,-1.283691 -0.30616,-0.4189453 -0.93457,-0.4189453 -0.76807,0 -1.21387,0.5102543 -0.4458,0.510254 -0.4458,1.391113 v 3.399902 h -0.99365 v -3.598633 q 0,-0.870117 -0.30616,-1.283691 -0.30615,-0.4189453 -0.94531,-0.4189453 -0.75732,0 -1.20312,0.5156253 -0.4458,0.510254 -0.4458,1.385742 v 3.399902 h -0.99366 V 8.8239202 h 0.99366 v 0.9345704 q 0.33837,-0.5532227 0.81103,-0.8164063 0.47266,-0.2631836 1.12256,-0.2631836 0.65527,0 1.11182,0.3330078 0.46191,0.3330078 0.68212,0.9667969 z" />
      <path
         id="path932"
         style="text-anchor:start;fill:#010101;fill-opacity:0.66790999"
         d="m 161.18222,11.584662 v 0.483399 h -4.54394 q 0.0644,1.020508 0.6123,1.557617 0.55322,0.531738 1.53613,0.531738 0.56934,0 1.10108,-0.139648 0.53711,-0.139649 1.06347,-0.418945 v 0.93457 q -0.53173,0.225586 -1.09033,0.34375 -0.55859,0.118164 -1.1333,0.118164 -1.43945,0 -2.28271,-0.837891 -0.83789,-0.83789 -0.83789,-2.266601 0,-1.477051 0.79492,-2.3417971 0.80029,-0.8701172 2.15381,-0.8701172 1.21386,0 1.91748,0.7841797 0.70898,0.7788086 0.70898,2.1215816 z m -0.98828,-0.290039 q -0.0107,-0.811035 -0.45654,-1.294433 -0.44043,-0.4833987 -1.1709,-0.4833987 -0.82715,0 -1.32666,0.4672852 -0.49414,0.4672855 -0.56934,1.3159175 z" />
      <path
         id="path934"
         style="text-anchor:start;fill:#010101;fill-opacity:0.66790999"
         d="m 163.78183,7.1159124 v 1.7080078 h 2.03564 v 0.7680665 h -2.03564 v 3.2656253 q 0,0.735839 0.19873,0.945312 0.2041,0.209473 0.82178,0.209473 h 1.01513 v 0.827148 h -1.01513 q -1.14405,0 -1.5791,-0.424316 -0.43506,-0.429688 -0.43506,-1.557617 V 9.5919867 h -0.7251 V 8.8239202 h 0.7251 V 7.1159124 Z" />
      <path
         id="path936"
         style="text-anchor:start;fill:#010101;fill-opacity:0.66790999"
         d="m 172.11777,11.208686 v 3.630859 h -0.98828 v -3.598633 q 0,-0.854003 -0.33301,-1.2783199 -0.33301,-0.4243164 -0.99903,-0.4243164 -0.80029,0 -1.2622,0.5102543 -0.46192,0.510254 -0.46192,1.391113 v 3.399902 h -0.99365 V 6.4821234 h 0.99365 v 3.2763672 q 0.3545,-0.5424805 0.83252,-0.8110352 0.4834,-0.2685547 1.11182,-0.2685547 1.03662,0 1.56836,0.6445313 0.53174,0.6391601 0.53174,1.885254 z" />
      <path
         id="path938"
         style="text-anchor:start;fill:#010101;fill-opacity:0.66790999"
         d="m 179.23447,11.584662 v 0.483399 h -4.54395 q 0.0644,1.020508 0.61231,1.557617 0.55322,0.531738 1.53613,0.531738 0.56933,0 1.10107,-0.139648 0.53711,-0.139649 1.06348,-0.418945 v 0.93457 q -0.53174,0.225586 -1.09033,0.34375 -0.5586,0.118164 -1.1333,0.118164 -1.43946,0 -2.28272,-0.837891 -0.83789,-0.83789 -0.83789,-2.266601 0,-1.477051 0.79492,-2.3417971 0.8003,-0.8701172 2.15381,-0.8701172 1.21387,0 1.91748,0.7841797 0.70899,0.7788086 0.70899,2.1215816 z m -0.98828,-0.290039 q -0.0108,-0.811035 -0.45655,-1.294433 -0.44043,-0.4833987 -1.1709,-0.4833987 -0.82714,0 -1.32666,0.4672852 -0.49414,0.4672855 -0.56933,1.3159175 z" />
      <path
         id="path940"
         style="text-anchor:start;fill:#010101;fill-opacity:0.66790999"
         d="M 180.75449,12.465522 V 8.8239202 h 0.98828 v 3.6040038 q 0,0.854004 0.33301,1.283692 0.333,0.424316 0.99902,0.424316 0.80029,0 1.26221,-0.510254 0.46728,-0.510254 0.46728,-1.391113 V 8.8239202 h 0.98828 v 6.0156248 h -0.98828 v -0.923828 q -0.35986,0.547852 -0.83789,0.816406 -0.47266,0.263184 -1.10107,0.263184 -1.03663,0 -1.57373,-0.644531 -0.53711,-0.644532 -0.53711,-1.885254 z m 2.48681,-3.7866213 z" />
      <path
         id="path942"
         style="text-anchor:start;fill:#010101;fill-opacity:0.66790999"
         d="m 191.66318,9.0011663 v 0.9345704 q -0.41895,-0.2148438 -0.87012,-0.3222657 -0.45117,-0.1074218 -0.93457,-0.1074218 -0.73584,0 -1.10645,0.2255859 -0.36523,0.2255859 -0.36523,0.6767579 0,0.34375 0.26318,0.54248 0.26319,0.19336 1.05811,0.370606 l 0.33838,0.0752 q 1.05273,0.225586 1.49316,0.63916 0.4458,0.408203 0.4458,1.144043 0,0.837891 -0.66601,1.32666 -0.66065,0.48877 -1.8208,0.48877 -0.4834,0 -1.00977,-0.09668 -0.521,-0.09131 -1.10107,-0.279297 v -1.020507 q 0.54785,0.284668 1.07959,0.429687 0.53173,0.139649 1.05273,0.139649 0.69824,0 1.07422,-0.236329 0.37598,-0.241699 0.37598,-0.676757 0,-0.402832 -0.27393,-0.617676 -0.26855,-0.214844 -1.18701,-0.413574 l -0.34375,-0.08057 q -0.91846,-0.193359 -1.32666,-0.59082 -0.4082,-0.402832 -0.4082,-1.101074 0,-0.8486332 0.60156,-1.3105472 0.60156,-0.4619141 1.70801,-0.4619141 0.54785,0 1.03125,0.080566 0.48339,0.080566 0.8916,0.2416992 z" />
      <path
         id="path944"
         style="text-anchor:start;fill:#010101;fill-opacity:0.66790999"
         d="m 198.12997,16.665717 v 0.768067 h -5.71484 v -0.768067 z" />
      <path
         id="path946"
         style="text-anchor:start;fill:#010101;fill-opacity:0.66790999"
         d="m 199.05917,6.4821234 h 0.98828 v 8.3574216 h -0.98828 z" />
      <path
         id="path948"
         style="text-anchor:start;fill:#010101;fill-opacity:0.66790999"
         d="m 202.11533,8.8239202 h 0.98828 v 6.0156248 h -0.98828 z m 0,-2.3417968 h 0.98828 v 1.2514648 h -0.98828 z" />
      <path
         id="path950"
         style="text-anchor:start;fill:#010101;fill-opacity:0.66790999"
         d="m 209.48984,11.837104 q 0,-1.090332 -0.45117,-1.708008 -0.44581,-0.6230468 -1.22998,-0.6230468 -0.78418,0 -1.23536,0.6230468 -0.4458,0.617676 -0.4458,1.708008 0,1.090332 0.4458,1.713379 0.45118,0.617676 1.23536,0.617676 0.78417,0 1.22998,-0.617676 0.45117,-0.623047 0.45117,-1.713379 z m -3.36231,-2.1000978 q 0.31153,-0.5371094 0.78418,-0.7949219 0.47803,-0.2631836 1.13867,-0.2631836 1.09571,0 1.77784,0.8701172 0.6875,0.8701171 0.6875,2.2880861 0,1.417969 -0.6875,2.288086 -0.68213,0.870117 -1.77784,0.870117 -0.66064,0 -1.13867,-0.257813 -0.47265,-0.263183 -0.78418,-0.800293 v 0.902344 h -0.99365 V 6.4821234 h 0.99365 z" />
      <path
         id="path952"
         style="text-anchor:start;fill:#010101;fill-opacity:0.66790999"
         d="m 211.44492,8.8239202 h 1.04736 l 1.87988,5.0488278 1.87988,-5.0488278 h 1.04737 l -2.25586,6.0156248 h -1.34277 z" />
      <path
         id="path954"
         style="text-anchor:start;fill:#010101;fill-opacity:0.66790999"
         d="m 218.66367,8.8239202 h 0.98828 v 6.0156248 h -0.98828 z m 0,-2.3417968 h 0.98828 v 1.2514648 h -0.98828 z" />
      <path
         id="path956"
         style="text-anchor:start;fill:#010101;fill-opacity:0.66790999"
         d="m 225.20566,9.7477484 q -0.16651,-0.09668 -0.36524,-0.1396485 -0.19336,-0.04834 -0.42968,-0.04834 -0.83789,0 -1.28907,0.5478521 -0.4458,0.54248 -0.4458,1.562988 v 3.168945 h -0.99365 V 8.8239202 h 0.99365 v 0.9345704 q 0.31153,-0.5478516 0.81104,-0.8110352 0.49951,-0.2685547 1.21387,-0.2685547 0.10205,0 0.22558,0.016113 0.12354,0.010742 0.27393,0.037598 z" />
      <path
         id="path958"
         style="text-anchor:start;fill:#010101;fill-opacity:0.66790999"
         d="m 227.21982,7.1159124 v 1.7080078 h 2.03564 v 0.7680665 h -2.03564 v 3.2656253 q 0,0.735839 0.19873,0.945312 0.2041,0.209473 0.82178,0.209473 h 1.01513 v 0.827148 h -1.01513 q -1.14405,0 -1.57911,-0.424316 -0.43505,-0.429688 -0.43505,-1.557617 V 9.5919867 h -0.7251 V 8.8239202 h 0.7251 V 7.1159124 Z" />
      <path
         id="path960"
         style="text-anchor:start;fill:#010101;fill-opacity:0.66790999"
         d="m 235.12607,16.665717 v 0.768067 h -5.71485 v -0.768067 z" />
      <path
         id="path962"
         style="text-anchor:start;fill:#010101;fill-opacity:0.66790999"
         d="m 241.20078,11.584662 v 0.483399 h -4.54395 q 0.0644,1.020508 0.6123,1.557617 0.55323,0.531738 1.53614,0.531738 0.56933,0 1.10107,-0.139648 0.53711,-0.139649 1.06348,-0.418945 v 0.93457 q -0.53174,0.225586 -1.09033,0.34375 -0.5586,0.118164 -1.1333,0.118164 -1.43946,0 -2.28272,-0.837891 -0.83789,-0.83789 -0.83789,-2.266601 0,-1.477051 0.79492,-2.3417971 0.80029,-0.8701172 2.15381,-0.8701172 1.21387,0 1.91748,0.7841797 0.70899,0.7788086 0.70899,2.1215816 z m -0.98829,-0.290039 q -0.0107,-0.811035 -0.45654,-1.294433 -0.44043,-0.4833987 -1.1709,-0.4833987 -0.82715,0 -1.32666,0.4672852 -0.49414,0.4672855 -0.56933,1.3159175 z" />
      <path
         id="path964"
         style="text-anchor:start;fill:#010101;fill-opacity:0.66790999"
         d="m 247.62997,8.8239202 -2.17529,2.9272458 2.28809,3.088379 h -1.16553 l -1.75098,-2.363281 -1.75097,2.363281 h -1.16553 l 2.33643,-3.147461 -2.1377,-2.8681638 h 1.16553 l 1.59521,2.1430668 1.59522,-2.1430668 z" />
      <path
         id="path966"
         style="text-anchor:start;fill:#010101;fill-opacity:0.66790999"
         d="m 250.09531,13.937201 v 3.19043 h -0.99366 V 8.8239202 h 0.99366 v 0.913086 q 0.31152,-0.5371094 0.78418,-0.7949219 0.47802,-0.2631836 1.13867,-0.2631836 1.0957,0 1.77783,0.8701172 0.6875,0.8701171 0.6875,2.2880861 0,1.417969 -0.6875,2.288086 -0.68213,0.870117 -1.77783,0.870117 -0.66065,0 -1.13867,-0.257813 -0.47266,-0.263183 -0.78418,-0.800293 z m 3.3623,-2.100097 q 0,-1.090332 -0.45117,-1.708008 -0.4458,-0.6230468 -1.22998,-0.6230468 -0.78418,0 -1.23535,0.6230468 -0.4458,0.617676 -0.4458,1.708008 0,1.090332 0.4458,1.713379 0.45117,0.617676 1.23535,0.617676 0.78418,0 1.22998,-0.617676 0.45117,-0.623047 0.45117,-1.713379 z" />
      <path
         id="path968"
         style="text-anchor:start;fill:#010101;fill-opacity:0.66790999"
         d="m 258.45273,9.5167913 q -0.79492,0 -1.25684,0.6230467 -0.46191,0.617676 -0.46191,1.697266 0,1.07959 0.45654,1.702637 0.46192,0.617675 1.26221,0.617675 0.78955,0 1.25146,-0.623047 0.46192,-0.623046 0.46192,-1.697265 0,-1.068848 -0.46192,-1.691895 -0.46191,-0.6284177 -1.25146,-0.6284177 z m 0,-0.8378906 q 1.28906,0 2.0249,0.8378906 0.73584,0.8378907 0.73584,2.3203127 0,1.477051 -0.73584,2.320312 -0.73584,0.837891 -2.0249,0.837891 -1.29444,0 -2.03028,-0.837891 -0.73046,-0.843261 -0.73046,-2.320312 0,-1.482422 0.73046,-2.3203127 0.73584,-0.8378906 2.03028,-0.8378906 z" />
      <path
         id="path970"
         style="text-anchor:start;fill:#010101;fill-opacity:0.66790999"
         d="m 266.33749,9.7477484 q -0.1665,-0.09668 -0.36523,-0.1396485 -0.19336,-0.04834 -0.42969,-0.04834 -0.83789,0 -1.28906,0.5478521 -0.4458,0.54248 -0.4458,1.562988 v 3.168945 h -0.99365 V 8.8239202 h 0.99365 v 0.9345704 q 0.31152,-0.5478516 0.81103,-0.8110352 0.49952,-0.2685547 1.21387,-0.2685547 0.10205,0 0.22559,0.016113 0.12353,0.010742 0.27392,0.037598 z" />
      <path
         id="path972"
         style="text-anchor:start;fill:#010101;fill-opacity:0.66790999"
         d="m 268.35165,7.1159124 v 1.7080078 h 2.03565 v 0.7680665 h -2.03565 v 3.2656253 q 0,0.735839 0.19873,0.945312 0.20411,0.209473 0.82178,0.209473 h 1.01514 v 0.827148 h -1.01514 q -1.14404,0 -1.5791,-0.424316 Q 267.358,13.985541 267.358,12.857612 V 9.5919867 h -0.7251 V 8.8239202 h 0.7251 V 7.1159124 Z" />
      <path
         id="path974"
         style="text-anchor:start;fill:#010101;fill-opacity:0.66790999"
         d="m 276.83261,11.584662 v 0.483399 h -4.54394 q 0.0644,1.020508 0.6123,1.557617 0.55322,0.531738 1.53613,0.531738 0.56934,0 1.10108,-0.139648 0.53711,-0.139649 1.06347,-0.418945 v 0.93457 q -0.53173,0.225586 -1.09033,0.34375 -0.55859,0.118164 -1.1333,0.118164 -1.43945,0 -2.28271,-0.837891 -0.83789,-0.83789 -0.83789,-2.266601 0,-1.477051 0.79492,-2.3417971 0.80029,-0.8701172 2.15381,-0.8701172 1.21386,0 1.91748,0.7841797 0.70898,0.7788086 0.70898,2.1215816 z m -0.98828,-0.290039 q -0.0107,-0.811035 -0.45654,-1.294433 -0.44043,-0.4833987 -1.1709,-0.4833987 -0.82715,0 -1.32666,0.4672852 -0.49414,0.4672855 -0.56934,1.3159175 z" />
      <path
         id="path976"
         style="text-anchor:start;fill:#010101;fill-opacity:0.66790999"
         d="m 281.94052,9.7477484 q -0.1665,-0.09668 -0.36523,-0.1396485 -0.19336,-0.04834 -0.42969,-0.04834 -0.83789,0 -1.28906,0.5478521 -0.4458,0.54248 -0.4458,1.562988 v 3.168945 h -0.99366 V 8.8239202 h 0.99366 v 0.9345704 q 0.31152,-0.5478516 0.81103,-0.8110352 0.49951,-0.2685547 1.21387,-0.2685547 0.10205,0 0.22558,0.016113 0.12354,0.010742 0.27393,0.037598 z" />
    </g>
    <g
       id="text94"
       style="font-size:11px;line-height:1.25;font-family:'DejaVu Sans', Verdana, Geneva, sans-serif;font-variant-ligatures:normal;font-variant-caps:normal;font-variant-numeric:normal;font-feature-settings:normal;letter-spacing:0px;word-spacing:0px;fill:#ffffff"
       aria-label="do1jlr.prometheus_libvirt_exporter">
      <path
         id="path979"
         d="M 97.454193,9.1889648 V 5.934082 h 0.988281 v 8.357422 H 97.454193 V 13.38916 q -0.311523,0.53711 -0.789551,0.800293 -0.472656,0.257813 -1.138672,0.257813 -1.090332,0 -1.777832,-0.870118 -0.682128,-0.870117 -0.682128,-2.288085 0,-1.4179692 0.682128,-2.2880864 0.6875,-0.8701172 1.777832,-0.8701172 0.666016,0 1.138672,0.2631836 0.478028,0.2578125 0.789551,0.7949218 z m -3.367676,2.1000982 q 0,1.090332 0.445801,1.713378 0.451172,0.617676 1.235352,0.617676 0.784179,0 1.235351,-0.617676 0.451172,-0.623046 0.451172,-1.713378 0,-1.090333 -0.451172,-1.7080083 -0.451172,-0.6230469 -1.235351,-0.6230469 -0.78418,0 -1.235352,0.6230469 -0.445801,0.6176753 -0.445801,1.7080083 z" />
      <path
         id="path981"
         d="m 102.80917,8.96875 q -0.79492,0 -1.25683,0.6230469 -0.46192,0.6176761 -0.46192,1.6972661 0,1.079589 0.45655,1.702636 0.46191,0.617676 1.2622,0.617676 0.78955,0 1.25147,-0.623047 0.46191,-0.623047 0.46191,-1.697265 0,-1.068848 -0.46191,-1.691895 -0.46192,-0.628418 -1.25147,-0.628418 z m 0,-0.8378906 q 1.28907,0 2.02491,0.8378906 0.73584,0.8378906 0.73584,2.320313 0,1.47705 -0.73584,2.320312 -0.73584,0.837891 -2.02491,0.837891 -1.29443,0 -2.03027,-0.837891 -0.73047,-0.843262 -0.73047,-2.320312 0,-1.4824224 0.73047,-2.320313 0.73584,-0.8378906 2.03027,-0.8378906 z" />
      <path
         id="path983"
         d="m 107.53574,13.378418 h 1.77246 V 7.2607422 l -1.92823,0.3867187 V 6.6591797 l 1.91748,-0.3867188 h 1.08497 v 7.1059571 h 1.77246 v 0.913086 h -4.61914 z" />
      <path
         id="path985"
         d="m 114.20663,8.2758789 h 0.98829 v 6.1230471 q 0,1.149414 -0.44043,1.665039 -0.43506,0.515625 -1.40723,0.515625 h -0.37598 v -0.837891 h 0.26319 q 0.56396,0 0.76806,-0.263183 0.2041,-0.257813 0.2041,-1.07959 z m 0,-2.3417969 h 0.98829 v 1.2514649 h -0.98829 z" />
      <path
         id="path987"
         d="m 117.26279,5.934082 h 0.98828 v 8.357422 h -0.98828 z" />
      <path
         id="path989"
         d="m 123.80478,9.199707 q -0.1665,-0.09668 -0.36524,-0.1396484 -0.19335,-0.04834 -0.42968,-0.04834 -0.83789,0 -1.28907,0.5478515 -0.4458,0.5424809 -0.4458,1.5629889 v 3.168945 h -0.99365 V 8.2758789 h 0.99365 v 0.9345703 q 0.31153,-0.5478515 0.81104,-0.8110351 0.49951,-0.2685547 1.21387,-0.2685547 0.10205,0 0.22558,0.016113 0.12354,0.010742 0.27393,0.037598 z" />
      <path
         id="path991"
         d="m 123.97128,12.927246 h 1.1333 v 1.364258 h -1.1333 z" />
      <path
         id="path993"
         d="m 128.28427,13.38916 v 3.19043 h -0.99365 V 8.2758789 h 0.99365 v 0.9130859 q 0.31152,-0.5371093 0.78418,-0.7949218 0.47803,-0.2631836 1.13867,-0.2631836 1.09571,0 1.77783,0.8701172 0.6875,0.8701172 0.6875,2.2880864 0,1.417968 -0.6875,2.288085 -0.68212,0.870118 -1.77783,0.870118 -0.66064,0 -1.13867,-0.257813 -0.47266,-0.263183 -0.78418,-0.800293 z m 3.36231,-2.100097 q 0,-1.090333 -0.45118,-1.7080083 -0.4458,-0.6230469 -1.22998,-0.6230469 -0.78418,0 -1.23535,0.6230469 -0.4458,0.6176753 -0.4458,1.7080083 0,1.090332 0.4458,1.713378 0.45117,0.617676 1.23535,0.617676 0.78418,0 1.22998,-0.617676 0.45118,-0.623046 0.45118,-1.713378 z" />
      <path
         id="path995"
         d="m 137.79648,9.199707 q -0.16651,-0.09668 -0.36524,-0.1396484 -0.19336,-0.04834 -0.42968,-0.04834 -0.83789,0 -1.28907,0.5478515 -0.4458,0.5424809 -0.4458,1.5629889 v 3.168945 h -0.99365 V 8.2758789 h 0.99365 v 0.9345703 q 0.31153,-0.5478515 0.81104,-0.8110351 0.49951,-0.2685547 1.21387,-0.2685547 0.10205,0 0.22558,0.016113 0.12354,0.010742 0.27393,0.037598 z" />
      <path
         id="path997"
         d="m 140.92245,8.96875 q -0.79492,0 -1.25683,0.6230469 -0.46192,0.6176761 -0.46192,1.6972661 0,1.079589 0.45655,1.702636 0.46191,0.617676 1.2622,0.617676 0.78956,0 1.25147,-0.623047 0.46191,-0.623047 0.46191,-1.697265 0,-1.068848 -0.46191,-1.691895 -0.46191,-0.628418 -1.25147,-0.628418 z m 0,-0.8378906 q 1.28907,0 2.02491,0.8378906 0.73584,0.8378906 0.73584,2.320313 0,1.47705 -0.73584,2.320312 -0.73584,0.837891 -2.02491,0.837891 -1.29443,0 -2.03027,-0.837891 -0.73047,-0.843262 -0.73047,-2.320312 0,-1.4824224 0.73047,-2.320313 0.73584,-0.8378906 2.03027,-0.8378906 z" />
      <path
         id="path999"
         d="m 150.00497,9.4306641 q 0.37061,-0.6660157 0.88623,-0.9829102 0.51563,-0.3168945 1.21387,-0.3168945 0.93994,0 1.4502,0.6606445 0.51025,0.6552734 0.51025,1.8691411 v 3.630859 h -0.99365 v -3.598633 q 0,-0.864746 -0.30615,-1.2836913 -0.30616,-0.4189453 -0.93457,-0.4189453 -0.76807,0 -1.21387,0.5102539 -0.4458,0.5102537 -0.4458,1.3911137 v 3.399902 h -0.99365 v -3.598633 q 0,-0.8701171 -0.30616,-1.2836913 -0.30615,-0.4189453 -0.94531,-0.4189453 -0.75732,0 -1.20312,0.515625 -0.4458,0.5102536 -0.4458,1.3857426 v 3.399902 h -0.99366 V 8.2758789 h 0.99366 v 0.9345703 q 0.33837,-0.5532226 0.81103,-0.8164062 0.47266,-0.2631836 1.12256,-0.2631836 0.65527,0 1.11182,0.3330078 0.46191,0.3330078 0.68212,0.9667969 z" />
      <path
         id="path1001"
         d="m 161.18222,11.036621 v 0.483399 h -4.54394 q 0.0644,1.020507 0.6123,1.557617 0.55322,0.531738 1.53613,0.531738 0.56934,0 1.10108,-0.139648 0.53711,-0.139649 1.06347,-0.418946 v 0.934571 q -0.53173,0.225586 -1.09033,0.34375 -0.55859,0.118164 -1.1333,0.118164 -1.43945,0 -2.28271,-0.837891 -0.83789,-0.837891 -0.83789,-2.266602 0,-1.4770503 0.79492,-2.3417964 0.80029,-0.8701172 2.15381,-0.8701172 1.21386,0 1.91748,0.7841797 0.70898,0.7788086 0.70898,2.1215819 z m -0.98828,-0.290039 Q 160.1832,9.9355469 159.7374,9.4521484 159.29697,8.96875 158.5665,8.96875 q -0.82715,0 -1.32666,0.4672852 -0.49414,0.4672851 -0.56934,1.3159178 z" />
      <path
         id="path1003"
         d="m 163.78183,6.5678711 v 1.7080078 h 2.03564 v 0.7680664 h -2.03564 V 12.30957 q 0,0.73584 0.19873,0.945313 0.2041,0.209472 0.82178,0.209472 h 1.01513 v 0.827149 h -1.01513 q -1.14405,0 -1.5791,-0.424316 -0.43506,-0.429688 -0.43506,-1.557618 V 9.0439453 h -0.7251 V 8.2758789 h 0.7251 V 6.5678711 Z" />
      <path
         id="path1005"
         d="m 172.11777,10.660645 v 3.630859 h -0.98828 v -3.598633 q 0,-0.8540038 -0.33301,-1.2783202 -0.33301,-0.4243164 -0.99903,-0.4243164 -0.80029,0 -1.2622,0.5102539 -0.46192,0.5102537 -0.46192,1.3911137 v 3.399902 h -0.99365 V 5.934082 h 0.99365 v 3.2763672 q 0.3545,-0.5424804 0.83252,-0.8110351 0.4834,-0.2685547 1.11182,-0.2685547 1.03662,0 1.56836,0.6445312 0.53174,0.6391602 0.53174,1.8852544 z" />
      <path
         id="path1007"
         d="m 179.23447,11.036621 v 0.483399 h -4.54395 q 0.0644,1.020507 0.61231,1.557617 0.55322,0.531738 1.53613,0.531738 0.56933,0 1.10107,-0.139648 0.53711,-0.139649 1.06348,-0.418946 v 0.934571 q -0.53174,0.225586 -1.09033,0.34375 -0.5586,0.118164 -1.1333,0.118164 -1.43946,0 -2.28272,-0.837891 -0.83789,-0.837891 -0.83789,-2.266602 0,-1.4770503 0.79492,-2.3417964 0.8003,-0.8701172 2.15381,-0.8701172 1.21387,0 1.91748,0.7841797 0.70899,0.7788086 0.70899,2.1215819 z m -0.98828,-0.290039 q -0.0108,-0.8110351 -0.45655,-1.2944336 -0.44043,-0.4833984 -1.1709,-0.4833984 -0.82714,0 -1.32666,0.4672852 -0.49414,0.4672851 -0.56933,1.3159178 z" />
      <path
         id="path1009"
         d="M 180.75449,11.91748 V 8.2758789 h 0.98828 v 3.6040041 q 0,0.854004 0.33301,1.283691 0.333,0.424317 0.99902,0.424317 0.80029,0 1.26221,-0.510254 0.46728,-0.510254 0.46728,-1.391114 V 8.2758789 h 0.98828 v 6.0156251 h -0.98828 v -0.923828 q -0.35986,0.547851 -0.83789,0.816406 -0.47266,0.263184 -1.10107,0.263184 -1.03663,0 -1.57373,-0.644532 -0.53711,-0.644531 -0.53711,-1.885254 z m 2.48681,-3.7866206 z" />
      <path
         id="path1011"
         d="m 191.66318,8.453125 v 0.9345703 q -0.41895,-0.2148437 -0.87012,-0.3222656 -0.45117,-0.1074219 -0.93457,-0.1074219 -0.73584,0 -1.10645,0.225586 -0.36523,0.2255859 -0.36523,0.6767578 0,0.3437504 0.26318,0.5424804 0.26319,0.193359 1.05811,0.370606 l 0.33838,0.07519 q 1.05273,0.225586 1.49316,0.63916 0.4458,0.408203 0.4458,1.144043 0,0.837891 -0.66601,1.32666 -0.66065,0.48877 -1.8208,0.48877 -0.4834,0 -1.00977,-0.09668 -0.521,-0.09131 -1.10107,-0.279297 v -1.020508 q 0.54785,0.284668 1.07959,0.429688 0.53173,0.139648 1.05273,0.139648 0.69824,0 1.07422,-0.236328 0.37598,-0.241699 0.37598,-0.676758 0,-0.402832 -0.27393,-0.617676 -0.26855,-0.214843 -1.18701,-0.413574 l -0.34375,-0.08057 q -0.91846,-0.19336 -1.32666,-0.59082 -0.4082,-0.402832 -0.4082,-1.1010747 0,-0.8486328 0.60156,-1.3105469 0.60156,-0.461914 1.70801,-0.461914 0.54785,0 1.03125,0.080566 0.48339,0.080566 0.8916,0.2416992 z" />
      <path
         id="path1013"
         d="m 198.12997,16.117676 v 0.768066 h -5.71484 v -0.768066 z" />
      <path
         id="path1015"
         d="m 199.05917,5.934082 h 0.98828 v 8.357422 h -0.98828 z" />
      <path
         id="path1017"
         d="m 202.11533,8.2758789 h 0.98828 v 6.0156251 h -0.98828 z m 0,-2.3417969 h 0.98828 v 1.2514649 h -0.98828 z" />
      <path
         id="path1019"
         d="m 209.48984,11.289063 q 0,-1.090333 -0.45117,-1.7080083 -0.44581,-0.6230469 -1.22998,-0.6230469 -0.78418,0 -1.23536,0.6230469 -0.4458,0.6176753 -0.4458,1.7080083 0,1.090332 0.4458,1.713378 0.45118,0.617676 1.23536,0.617676 0.78417,0 1.22998,-0.617676 0.45117,-0.623046 0.45117,-1.713378 z m -3.36231,-2.1000982 q 0.31153,-0.5371093 0.78418,-0.7949218 0.47803,-0.2631836 1.13867,-0.2631836 1.09571,0 1.77784,0.8701172 0.6875,0.8701172 0.6875,2.2880864 0,1.417968 -0.6875,2.288085 -0.68213,0.870118 -1.77784,0.870118 -0.66064,0 -1.13867,-0.257813 -0.47265,-0.263183 -0.78418,-0.800293 v 0.902344 h -0.99365 V 5.934082 h 0.99365 z" />
      <path
         id="path1021"
         d="m 211.44492,8.2758789 h 1.04736 l 1.87988,5.0488281 1.87988,-5.0488281 h 1.04737 l -2.25586,6.0156251 h -1.34277 z" />
      <path
         id="path1023"
         d="m 218.66367,8.2758789 h 0.98828 v 6.0156251 h -0.98828 z m 0,-2.3417969 h 0.98828 v 1.2514649 h -0.98828 z" />
      <path
         id="path1025"
         d="m 225.20566,9.199707 q -0.16651,-0.09668 -0.36524,-0.1396484 -0.19336,-0.04834 -0.42968,-0.04834 -0.83789,0 -1.28907,0.5478515 -0.4458,0.5424809 -0.4458,1.5629889 v 3.168945 h -0.99365 V 8.2758789 h 0.99365 v 0.9345703 q 0.31153,-0.5478515 0.81104,-0.8110351 0.49951,-0.2685547 1.21387,-0.2685547 0.10205,0 0.22558,0.016113 0.12354,0.010742 0.27393,0.037598 z" />
      <path
         id="path1027"
         d="m 227.21982,6.5678711 v 1.7080078 h 2.03564 v 0.7680664 h -2.03564 V 12.30957 q 0,0.73584 0.19873,0.945313 0.2041,0.209472 0.82178,0.209472 h 1.01513 v 0.827149 h -1.01513 q -1.14405,0 -1.57911,-0.424316 -0.43505,-0.429688 -0.43505,-1.557618 V 9.0439453 h -0.7251 V 8.2758789 h 0.7251 V 6.5678711 Z" />
      <path
         id="path1029"
         d="m 235.12607,16.117676 v 0.768066 h -5.71485 v -0.768066 z" />
      <path
         id="path1031"
         d="m 241.20078,11.036621 v 0.483399 h -4.54395 q 0.0644,1.020507 0.6123,1.557617 0.55323,0.531738 1.53614,0.531738 0.56933,0 1.10107,-0.139648 0.53711,-0.139649 1.06348,-0.418946 v 0.934571 q -0.53174,0.225586 -1.09033,0.34375 -0.5586,0.118164 -1.1333,0.118164 -1.43946,0 -2.28272,-0.837891 -0.83789,-0.837891 -0.83789,-2.266602 0,-1.4770503 0.79492,-2.3417964 0.80029,-0.8701172 2.15381,-0.8701172 1.21387,0 1.91748,0.7841797 0.70899,0.7788086 0.70899,2.1215819 z m -0.98829,-0.290039 q -0.0107,-0.8110351 -0.45654,-1.2944336 -0.44043,-0.4833984 -1.1709,-0.4833984 -0.82715,0 -1.32666,0.4672852 -0.49414,0.4672851 -0.56933,1.3159178 z" />
      <path
         id="path1033"
         d="m 247.62997,8.2758789 -2.17529,2.9272461 2.28809,3.088379 h -1.16553 l -1.75098,-2.363281 -1.75097,2.363281 h -1.16553 l 2.33643,-3.147461 -2.1377,-2.8681641 h 1.16553 l 1.59521,2.1430661 1.59522,-2.1430661 z" />
      <path
         id="path1035"
         d="m 250.09531,13.38916 v 3.19043 h -0.99366 V 8.2758789 h 0.99366 v 0.9130859 q 0.31152,-0.5371093 0.78418,-0.7949218 0.47802,-0.2631836 1.13867,-0.2631836 1.0957,0 1.77783,0.8701172 0.6875,0.8701172 0.6875,2.2880864 0,1.417968 -0.6875,2.288085 -0.68213,0.870118 -1.77783,0.870118 -0.66065,0 -1.13867,-0.257813 -0.47266,-0.263183 -0.78418,-0.800293 z m 3.3623,-2.100097 q 0,-1.090333 -0.45117,-1.7080083 -0.4458,-0.6230469 -1.22998,-0.6230469 -0.78418,0 -1.23535,0.6230469 -0.4458,0.6176753 -0.4458,1.7080083 0,1.090332 0.4458,1.713378 0.45117,0.617676 1.23535,0.617676 0.78418,0 1.22998,-0.617676 0.45117,-0.623046 0.45117,-1.713378 z" />
      <path
         id="path1037"
         d="m 258.45273,8.96875 q -0.79492,0 -1.25684,0.6230469 -0.46191,0.6176761 -0.46191,1.6972661 0,1.079589 0.45654,1.702636 0.46192,0.617676 1.26221,0.617676 0.78955,0 1.25146,-0.623047 0.46192,-0.623047 0.46192,-1.697265 0,-1.068848 -0.46192,-1.691895 -0.46191,-0.628418 -1.25146,-0.628418 z m 0,-0.8378906 q 1.28906,0 2.0249,0.8378906 0.73584,0.8378906 0.73584,2.320313 0,1.47705 -0.73584,2.320312 -0.73584,0.837891 -2.0249,0.837891 -1.29444,0 -2.03028,-0.837891 -0.73046,-0.843262 -0.73046,-2.320312 0,-1.4824224 0.73046,-2.320313 0.73584,-0.8378906 2.03028,-0.8378906 z" />
      <path
         id="path1039"
         d="m 266.33749,9.199707 q -0.1665,-0.09668 -0.36523,-0.1396484 -0.19336,-0.04834 -0.42969,-0.04834 -0.83789,0 -1.28906,0.5478515 -0.4458,0.5424809 -0.4458,1.5629889 v 3.168945 h -0.99365 V 8.2758789 h 0.99365 v 0.9345703 q 0.31152,-0.5478515 0.81103,-0.8110351 0.49952,-0.2685547 1.21387,-0.2685547 0.10205,0 0.22559,0.016113 0.12353,0.010742 0.27392,0.037598 z" />
      <path
         id="path1041"
         d="m 268.35165,6.5678711 v 1.7080078 h 2.03565 v 0.7680664 h -2.03565 V 12.30957 q 0,0.73584 0.19873,0.945313 0.20411,0.209472 0.82178,0.209472 h 1.01514 v 0.827149 h -1.01514 q -1.14404,0 -1.5791,-0.424316 Q 267.358,13.4375 267.358,12.30957 V 9.0439453 h -0.7251 V 8.2758789 h 0.7251 V 6.5678711 Z" />
      <path
         id="path1043"
         d="m 276.83261,11.036621 v 0.483399 h -4.54394 q 0.0644,1.020507 0.6123,1.557617 0.55322,0.531738 1.53613,0.531738 0.56934,0 1.10108,-0.139648 0.53711,-0.139649 1.06347,-0.418946 v 0.934571 q -0.53173,0.225586 -1.09033,0.34375 -0.55859,0.118164 -1.1333,0.118164 -1.43945,0 -2.28271,-0.837891 -0.83789,-0.837891 -0.83789,-2.266602 0,-1.4770503 0.79492,-2.3417964 0.80029,-0.8701172 2.15381,-0.8701172 1.21386,0 1.91748,0.7841797 0.70898,0.7788086 0.70898,2.1215819 z m -0.98828,-0.290039 q -0.0107,-0.8110351 -0.45654,-1.2944336 -0.44043,-0.4833984 -1.1709,-0.4833984 -0.82715,0 -1.32666,0.4672852 -0.49414,0.4672851 -0.56934,1.3159178 z" />
      <path
         id="path1045"
         d="m 281.94052,9.199707 q -0.1665,-0.09668 -0.36523,-0.1396484 -0.19336,-0.04834 -0.42969,-0.04834 -0.83789,0 -1.28906,0.5478515 -0.4458,0.5424809 -0.4458,1.5629889 v 3.168945 h -0.99366 V 8.2758789 h 0.99366 v 0.9345703 q 0.31152,-0.5478515 0.81103,-0.8110351 0.49951,-0.2685547 1.21387,-0.2685547 0.10205,0 0.22558,0.016113 0.12354,0.010742 0.27393,0.037598 z" />
    </g>
  </g>
</svg>
